<svg id="Layer_1" data-name="Layer 1" xmlns="http://www.w3.org/2000/svg" viewBox="0 0 1436.89 190.89"><defs><style>.cls-1{fill:#1b1945;}.cls-2{fill:#fff;}.cls-3{fill:#02eeb3;}.cls-4{fill:#02edb3;}</style></defs><title>LJ Checklistdw</title><path class="cls-1" d="M300.22,0c-3.32,18.52-6.68,37-10,55.56q-5.79,32.67-11.52,65.35-5.72,32.43-11.42,64.86a31.63,31.63,0,0,0-.08,5q-130.47,0-261,.15c-5.16,0-7-1.06-6-6.15a14.91,14.91,0,0,0,0-3c1.53,0,1.81-1,2-2.31.44-2.94,1-5.87,1.53-8.8q5.7-32,11.4-64c4.56-25.9,9.14-51.8,13.53-77.73C30.4,19.29,32.94,9.81,33.3,0h72a25.14,25.14,0,0,1-.13,3.48q-7.74,43.46-15.6,86.88c-.67,3.69.48,4.67,4,4.64,13.82-.14,27.64-.25,41.45.06,4.43.1,5.62-1.73,6.27-5.59,3.38-20.21,7.08-40.37,10.45-60.59,1.6-9.61,4.16-19.08,4.51-28.88Zm-28.3,24.53c-.54-.23-.84-.48-1.14-.48q-45.7-.07-91.4-.16c-2.45,0-3,1.07-3.31,3.22-.8,5.42-1.62,10.85-2.93,16.16-1,4,.36,4.63,4.05,4.6,20.31-.17,40.63.07,60.94-.19,4.76-.07,5.88,1.2,5,5.78-3.81,20.57-7.4,41.18-11,61.79-.47,2.69-1.37,4-4.45,4q-20-.24-40,0c-3.18,0-4.14-1-3.52-4,1.05-5.21,1.91-10.46,2.89-15.68.46-2.48.28-4.13-3-4-5.66.21-11.33.15-17,0-2.57-.07-3.45,1.07-3.85,3.43-2.24,13.09-4.53,26.18-7,39.24-.66,3.56,0,4.9,4.06,4.88q43.2-.27,86.4,0c3.47,0,4.52-1.2,5-4.31,1.86-11.31,3.92-22.58,5.92-33.86Q264.82,64.68,271.92,24.53ZM80.58,143c14.32,0,28.65-.14,43,.1,3.64.07,5-1.08,5.38-4.52.53-4.45,1.55-8.83,2.28-13.26,1-6.12,1-6.12-5.08-6.12H66.67c-6.16,0-6.08,0-5-6.08C66.78,84.46,71.81,55.84,77,27.24c.52-2.86-.42-3.41-3-3.35-5.66.14-11.33.18-17,0-2.83-.1-3.66,1-4,3.64-.56,4.44-1.61,8.82-2.39,13.23Q42,89.31,33.43,137.87c-.64,3.59-.24,5.29,4.19,5.2C51.94,142.78,66.26,143,80.58,143Z"/><path class="cls-2" d="M1436.89,48.93c-1.86-1.35-1.71.38-1.88,1.31-.82,4.58-1.64,9.16-2.3,13.76-.37,2.56-1.43,3.58-4.21,3.49-6.82-.22-13.66,0-20.48-.11-2.63-.06-3.72.69-4.2,3.48-4.24,24.88-8.71,49.72-13,74.6-.58,3.37-1.7,4.67-5.37,4.45a176.53,176.53,0,0,0-19,0c-3.45.16-4.14-.91-3.55-4.12,3.54-19.44,7-38.9,10.39-58.36,1-5.56,1.73-11.17,3-16.66.68-2.95-.28-3.4-2.85-3.35-6.5.11-13-.15-19.48.11-3.5.13-4.78-.69-4-4.39,1.4-6.49,2.71-13,3.55-19.6.4-3.07,1.53-3.67,4.37-3.66,26.3.11,52.61.08,78.92.1Z"/><path class="cls-2" d="M1319.76,81c-.39,2.65-.67,4.93-1.08,7.18-1.18,6.65-1.2,6.65,5.26,6.65,7.09,0,7.15,0,6,6.8-1.71,10.15-3.55,20.28-5.23,30.44-.47,2.79-1.36,4.15-4.7,4.09-9.63-.17-9.82,0-11.39,9.33-.58,3.46-1.75,4.45-5.31,4.41q-30-.32-60,0c-3.95,0-4.65-.76-3.71-4.62a187,187,0,0,0,3.31-19.13c.43-3.21,1.88-3.92,4.9-3.89,15.33.15,30.65-.12,46,.19,4.12.08,5.34-1.39,5.93-5.07,1.39-8.65,1.53-8.62-7-8.62-9.82,0-19.65-.07-29.48,0-2.61,0-3.47-.43-2.84-3.32.73-3.35,3-7.65,1.09-10-1.38-1.68-6.26-.77-9.55-.57-2.88.17-3.31-.9-2.85-3.41q3.14-17.15,6.06-34.35c.42-2.47,1.29-3.56,4.12-3.59,10.06-.09,10.17-.21,12-9.86.55-2.92,1.57-4,4.72-3.92q30.48.26,61,0c3.45,0,4,.77,3.27,4.12-1.47,6.47-2.44,13.07-3.39,19.64-.44,3.07-1.77,4-4.87,3.91-15.49-.17-31,.08-46.47-.19-3.71-.06-4.81,1.23-5.37,4.54-1.55,9.16-1.67,9.15,7.48,9.15Z"/><path class="cls-2" d="M1051.91,39.91c-1.45,8.41-2.64,16.3-4.23,24.11-.61,3,.43,3.23,2.9,3.32,9.88.33,10.08.43,11.64-9.17.62-3.79,2.2-4.66,5.78-4.56,8.74.24,9.06.11,10.26-8.32.65-4.66,2.52-5.78,7-5.5,7.12.44,14.28.12,21.67.12-1.45,8.41-2.87,16.39-4.18,24.39-.39,2.38-1.44,3.15-4,3.2-10.15.18-10.28.27-12,9.81-.57,3.09-1.86,3.86-4.87,3.83-9.48-.11-9.52,0-11.35,9.52-.94,4.89-1.57,9.85-2.62,14.72-.61,2.84.37,3.38,3,3.37,3.28,0,7.91-1.56,9.48.69,1.35,2-.55,6.26-1.22,9.49-.54,2.63.24,3.39,3,3.46,10.4.28,10.38.39,8.34,10.89-.86,4.4-1.79,8.8-2.31,13.25-.28,2.5-1.06,3.38-3.65,3.33-8-.16-16-.06-24.48-.06.65-3.64,1.17-7,1.86-10.31.52-2.5,0-3.61-2.91-3.53-3.27.09-7.71,1.6-9.54-.68s.39-6.33,1.09-9.51c.65-2.94-.29-3.3-2.86-3.37-10.07-.29-10.06-.37-11.89,9.56-.9,4.9-2,9.78-2.61,14.72-.32,2.68-1.41,3.21-3.81,3.16-7-.12-14-.1-21,0-2.37,0-3.49,0-2.92-3.16q9.33-51.49,18.26-103.06c.5-2.89,1.27-3.86,4.27-3.78C1035.78,40.06,1043.6,39.91,1051.91,39.91Z"/><path class="cls-2" d="M772.08,149.8c2.19-12.47,4.16-24.58,6.52-36.61.67-3.44.44-4.72-3.48-4.53-6.32.31-12.67.26-19,0-3.3-.13-4.58.8-5.11,4.21-1.74,11.32-3.93,22.57-5.85,33.87-.3,1.79-.44,3.12-2.82,3.09-8.31-.11-16.62,0-25.31,0,3-17.18,6-34,9-50.77,3.31-18.64,6.65-37.28,9.86-55.93.36-2.05.6-3.3,3.18-3.25,8.14.16,16.29.06,24.95.06-2.23,12.53-4.31,24.72-6.61,36.87-.58,3-.48,4.5,3.32,4.31a174.16,174.16,0,0,1,19,0c3.66.21,4.82-1.08,5.36-4.5C786.89,65.28,789,54,791,42.73c.27-1.57.33-2.87,2.49-2.85,8.46.08,16.93,0,25.59,0-6.36,36-12.66,71.44-18.88,106.93-.32,1.86-.59,3-2.9,3C789,149.73,780.65,149.8,772.08,149.8Z"/><path class="cls-2" d="M914.93,40.1c-1.41,8.21-2.87,16.18-4.12,24.19-.44,2.82-2,3.2-4.45,3.19-15.49-.1-31,.1-46.46-.16-3.81-.07-5.14,1.19-5.7,4.73-1.44,9-1.57,9,7.71,9,5.16,0,10.33.09,15.48,0,2.27-.06,2.9.65,2.48,2.87-1.39,7.35-2.71,14.7-3.89,22.08-.38,2.33-1.49,2.92-3.7,2.88-7-.12-14,.08-21-.11-2.75-.07-3.7.91-4.17,3.52-1.81,10.13-1.9,10.12,8.53,10.12,13.32,0,26.65.18,40-.11,4.42-.09,4.91,1.32,4,5.13-1.43,6.31-2.51,12.71-3.44,19.12-.35,2.38-.91,3.41-3.58,3.4q-31.47-.17-62.95,0c-2.84,0-2.84-1.19-2.46-3.28.62-3.39,3-7.65,1.07-9.91-1.41-1.69-6.27-.77-9.56-.56-4.51.3-2.82-2.71-2.5-4.56,3-17.51,6.14-35,9.23-52.5,1.25-7,2.62-14,3.63-21.11.46-3.2,1.59-4.4,5-4.34,9.34.17,9.44,0,11.21-9.59.57-3,1.57-4.24,5-4.21,20.15.21,40.3.1,60.45.11C912.09,39.92,913.41,40,914.93,40.1Z"/><path class="cls-2" d="M662.15,149.8c-8,0-16-.12-24,.07-2.82.06-3.4-.82-2.86-3.39.68-3.23,2.52-7.4,1.21-9.55-1.51-2.46-6.13-1-9.32-.77-3.91.24-3.44-1.77-3-4.23q5.23-29.45,10.44-58.89c.9-5.07,1.82-10.14,2.59-15.23.42-2.75,1.13-4.29,4.61-4.23,9.66.15,9.74,0,11.61-9.71.53-2.74,1.26-4.11,4.61-4.06,15.82.23,31.65.19,47.48,0,3.26,0,3.86.75,3.21,3.9-2,9.6-1.85,9.77,8.26,9.88,3.15,0,3.56,1.12,3,3.78-1.36,7-2.71,14-3.78,21.09-.34,2.26-1.31,2.62-3.23,2.61q-11-.11-22,0c-2.1,0-2.83-.35-2.39-2.8.6-3.39,3.05-7.74,1.06-10-2.18-2.47-6.89-.59-10.49-.85-1.66-.12-3.33,0-5,0-11.17,0-11.13,0-13,10.76-2.24,12.93-4.41,25.87-6.93,38.75-.87,4.44.11,5.83,4.76,5.49a173.91,173.91,0,0,1,18,0c2.81.1,4.23-.52,4.55-3.59.35-3.26.22-7.67,2.2-9.38,2.52-2.17,7-.61,10.64-.7,4.5-.12,9,.09,13.49-.08,2.62-.1,3,.69,2.45,3.16-1.38,6.83-2.5,13.73-3.54,20.63-.42,2.77-1.47,3.75-4.48,3.72-9.75-.07-9.91.06-11.64,9.69-.59,3.29-1.77,4.19-5.07,4.06C677.82,149.6,670,149.8,662.15,149.8Z"/><path class="cls-2" d="M950.52,149.8c-8.16,0-16.33-.13-24.49.07-2.92.07-3.31-.94-2.8-3.43.66-3.23,2.51-7.43,1.18-9.54-1.51-2.41-6.14-.94-9.34-.74-4,.25-3.38-1.9-3-4.27q5.22-29.44,10.44-58.89c.9-5.07,1.82-10.14,2.58-15.24.42-2.79,1.23-4.23,4.65-4.18,9.61.15,9.7,0,11.56-9.76.54-2.81,1.38-4,4.66-4q23.73.33,47.48,0c3.36,0,3.78.89,3.15,3.94-2,9.72-1.87,9.87,7.81,9.85,3,0,4.22.52,3.53,3.81-1.42,6.83-2.68,13.7-3.73,20.6-.34,2.23-.94,3.13-3.34,3.08-7.33-.14-14.66-.1-22,0-2.19,0-2.75-.48-2.35-2.84.57-3.39,3.07-7.73,1-10-2.2-2.43-6.91-.58-10.51-.83-1.66-.11-3.33,0-5,0-11.15,0-11.1,0-13,10.8-2.24,12.93-4.48,25.86-6.9,38.76-.72,3.79-.55,5.8,4.28,5.45a170,170,0,0,1,18.48,0c2.86.1,4-.7,4.54-3.63,2-10.11,2.18-10.08,12.35-10.08,4.5,0,9,.06,13.5,0,2.3,0,3.62,0,2.92,3.18-1.49,6.8-2.54,13.72-3.57,20.62-.42,2.83-1.56,3.7-4.52,3.68-9.69-.08-9.89,0-11.59,9.74-.59,3.4-1.92,4.11-5.12,4C965.86,149.63,958.19,149.8,950.52,149.8Z"/><path class="cls-2" d="M470.32,149.8c-7.83,0-15.66-.13-23.49.06-3,.08-4.27-.4-3.43-3.75.8-3.17,2.84-7.27,1.05-9.45-1.31-1.61-5.94-.71-9.08-.55-2.81.14-3.84-.56-3.24-3.56,1.42-7,2.73-14,3.77-21.09.37-2.46,1.44-2.85,3.57-2.82,7.16.1,14.33.13,21.49,0,2.54,0,2.88.62,2.52,3.13-.47,3.36-3.1,7.58-.79,9.9,2.14,2.15,6.64.51,10.1.64s6.71-.34,10,.1c5.05.68,6.64-1.38,7.45-6.22,4-24.25,8.53-48.42,12.64-72.65.51-3,1.48-3.77,4.35-3.69,6.82.2,13.66.21,20.48,0,3.09-.1,3.33.76,2.81,3.63q-7.93,44.15-15.5,88.35c-.53,3.11-1.57,4.89-5,4.22a2.78,2.78,0,0,0-.5,0c-9,0-9.2,0-10.48,8.7-.6,4-2,5.42-6.23,5.17C485.33,149.48,477.81,149.8,470.32,149.8Z"/><path class="cls-2" d="M380.19,39.91C375.49,66.32,371,92,366.3,117.61c-.65,3.61-.1,4.88,4,4.81,15.31-.26,30.62,0,45.93-.16,3.18,0,4.53.52,3.78,4.09q-2.17,10.22-3.71,20.57c-.35,2.41-1.3,2.92-3.5,2.92-21-.06-41.94-.09-62.91,0-2.71,0-3-1-2.54-3.21.68-3.39,2.9-7.63,1.13-10-1.27-1.67-6.24-.8-9.53-.57-4.33.3-2.95-2.5-2.61-4.48,2.71-15.7,5.53-31.39,8.32-47.08,2.47-13.88,5-27.76,7.39-41.67.31-1.81.46-3.06,2.83-3C363.19,40,371.49,39.91,380.19,39.91Z"/><path class="cls-2" d="M1148,39.91c-4.64,26.05-9.1,51.55-13.8,77-.8,4.38,0,5.63,4.71,5.53,14.81-.33,29.63,0,44.44-.22,4.56-.08,5.16,1.32,4.2,5.39a190.12,190.12,0,0,0-3.4,19.11c-.35,2.71-1.47,3.13-3.83,3.12-20.8-.07-41.61-.11-62.41,0-3.13,0-3.12-1.21-2.69-3.52.62-3.24,2.49-7.48,1.14-9.52-1.52-2.31-6.17-.89-9.39-.69-4.08.27-3.26-2.07-2.86-4.32q7.17-40.7,14.43-81.38c1.91-10.57,2.06-10.54,12.94-10.54Z"/><path class="cls-2" d="M1196.89,149.8c6.38-36,12.69-71.44,18.92-106.91.32-1.81.47-3.06,2.83-3,8.3.12,16.6,0,25.24,0-4.18,23.73-8.28,47.05-12.4,70.37-2.13,12.09-4.4,24.16-6.38,36.28-.4,2.49-1.13,3.34-3.68,3.29C1213.44,149.7,1205.47,149.8,1196.89,149.8Z"/><path class="cls-2" d="M573.84,108.75c-12.32,0-24.65-.11-37,.07-3.34.05-4.73-.33-3.85-4.2,1.5-6.64,2.57-13.38,3.53-20.12.43-2.94,1.66-3.59,4.52-3.58q37.23.19,74.46,0c3.05,0,4.51.29,3.69,4-1.47,6.64-2.66,13.37-3.54,20.11-.43,3.34-1.95,3.81-4.86,3.78C598.5,108.67,586.17,108.75,573.84,108.75Z"/><path class="cls-3" d="M271.92,24.53q-7.08,40.13-14.18,80.35c-2,11.28-4.06,22.55-5.92,33.86-.5,3.11-1.55,4.33-5,4.31q-43.2-.24-86.4,0c-4.1,0-4.72-1.32-4.06-4.88,2.43-13.06,4.72-26.15,7-39.24.4-2.36,1.28-3.5,3.85-3.43,5.65.13,11.32.19,17,0,3.3-.12,3.48,1.53,3,4-1,5.22-1.84,10.47-2.89,15.68-.62,3,.34,4.07,3.52,4q20-.21,40,0c3.08,0,4-1.28,4.45-4,3.57-20.61,7.16-41.22,11-61.79.85-4.58-.27-5.85-5-5.78-20.31.26-40.63,0-60.94.19-3.69,0-5-.59-4.05-4.6,1.31-5.31,2.13-10.74,2.93-16.16.32-2.15.86-3.22,3.31-3.22q45.7.15,91.4.16C271.08,24.05,271.38,24.3,271.92,24.53Z"/><path class="cls-4" d="M80.58,143c-14.32,0-28.64-.18-43,.11-4.43.09-4.83-1.61-4.19-5.2q8.66-48.56,17.2-97.13C51.41,36.33,52.46,32,53,27.51c.33-2.63,1.16-3.74,4-3.64,5.65.2,11.32.16,17,0,2.57-.06,3.51.49,3,3.35-5.17,28.6-10.2,57.22-15.3,85.83-1.09,6.08-1.17,6.08,5,6.08h59.45c6,0,6.08,0,5.08,6.12-.73,4.43-1.75,8.81-2.28,13.26-.41,3.44-1.74,4.59-5.38,4.52C109.23,142.82,94.9,143,80.58,143Z"/></svg>